<svg xmlns="http://www.w3.org/2000/svg" viewBox="0 0 2048 614"><defs><radialGradient id="g"><stop stop-color="#19452b"/><stop offset="1" stop-color="#0b100d"/></radialGradient><linearGradient id="b" x2="1" y2="1"><stop stop-color="#d5ad55"/><stop offset="1" stop-color="#81612d"/></linearGradient></defs><rect width="2048" height="614" fill="url(#g)"/><g stroke="#00ff41" stroke-width="3" opacity=".25" fill="none"><rect x="80" y="70" width="1888" height="474" rx="12"/><path d="M1024 70v474"/><circle cx="1024" cy="307" r="145"/><path d="M80 145h330v324H80m1888-324h-330v324h330"/><circle cx="410" cy="307" r="85"/><circle cx="1638" cy="307" r="85"/><path d="M80 85c660 0 660 444 0 444m1888-444c-660 0-660 444 0 444"/></g><circle cx="1024" cy="307" r="196" fill="#000" opacity=".35"/><circle cx="1024" cy="307" r="169" fill="url(#b)" stroke="#ecd690" stroke-width="2"/><g stroke="#211b11" stroke-width="8" fill="none"><circle cx="1024" cy="307" r="168"/><path d="M855 307h338M1024 138v338M911 183c154 21 72 200 226 248M1137 183c-154 21-72 200-226 248"/></g></svg>