<svg xmlns="http://www.w3.org/2000/svg" width="2048" height="614" viewBox="0 0 2048 614"><defs><radialGradient id="g"><stop stop-color="#173f24"/><stop offset="1" stop-color="#111"/></radialGradient></defs><rect width="2048" height="614" fill="url(#g)"/><path d="M1024 500 700 260 1024 70 1348 260Z" fill="#102719" stroke="#00ed38" stroke-width="3"/><path d="M1024 440 805 260 1024 130 1243 260Z" fill="#29231a" stroke="#b9a45e" stroke-width="2"/><path d="M1024 440 805 260M1024 440 1243 260" stroke="#ddd" stroke-width="2"/><g fill="#fff"><rect x="1016" y="128" width="16" height="16" transform="rotate(45 1024 136)"/><rect x="799" y="254" width="16" height="16" transform="rotate(45 807 262)"/><rect x="1235" y="254" width="16" height="16" transform="rotate(45 1243 262)"/><path d="M1016 438H1032V450L1024 458 1016 450Z"/></g><circle cx="1024" cy="310" r="25" fill="#806b42"/><g stroke="#284332" fill="none" opacity=".5"><path d="M140 500 590 70M1458 70 1908 500"/><circle cx="280" cy="250" r="100"/><circle cx="1768" cy="250" r="100"/></g></svg>
